<svg width="200" height="200" viewBox="0 0 200 200" fill="none" xmlns="http://www.w3.org/2000/svg">
<rect width="200" height="200" fill="url(#paint0_radial_11_33)"/>
<path d="M106.25 45C97.305 45 90 52.305 90 61.25C90 70.4007 95.3437 79.746 101.172 87.03C104.086 90.6725 107.15 93.7835 109.893 96.0485C111.264 97.181 112.549 98.0998 113.76 98.783C114.971 99.4661 116.042 99.9988 117.5 99.9988C118.959 99.9988 120.03 99.4661 121.24 98.783C122.451 98.0999 123.736 97.1811 125.108 96.0485C127.851 93.7834 130.914 90.6725 133.828 87.03C139.657 79.7448 145 70.3995 145 61.25C145 52.305 137.695 45 128.75 45C124.392 45.0001 120.523 47.0849 117.5 50.122C114.477 47.0848 110.609 45 106.25 45H106.25ZM106.25 50C109.916 50.0001 113.346 51.7804 115.454 54.7802C115.685 55.1086 115.991 55.3766 116.347 55.5617C116.703 55.7467 117.099 55.8433 117.5 55.8433C117.901 55.8433 118.297 55.7467 118.653 55.5617C119.009 55.3766 119.315 55.1086 119.546 54.7802C121.654 51.7805 125.083 50 128.75 50C134.992 50 140 55.0072 140 61.25C140 68.3493 135.343 77.129 129.922 83.9062C127.211 87.295 124.337 90.1998 121.924 92.1925C120.717 93.1889 119.619 93.9596 118.779 94.4337C117.939 94.9078 117.292 95.0001 117.5 95.0001C117.708 95.0001 117.061 94.9078 116.221 94.4337C115.38 93.9595 114.283 93.1889 113.076 92.1925C110.663 90.1998 107.789 87.295 105.078 83.9062C99.6564 77.129 95.0001 68.3493 95.0001 61.25C95.0001 55.0072 100.007 50 106.25 50H106.25ZM75.035 100C74.5649 99.9936 74.1025 100.12 73.7009 100.364C73.2993 100.609 72.9747 100.961 72.7645 101.382L60.9577 125H47.5007C46.8377 125 46.2018 125.263 45.733 125.732C45.2641 126.201 45.0007 126.837 45.0007 127.5C45.0007 128.163 45.2641 128.799 45.733 129.268C46.2018 129.737 46.8377 130 47.5007 130H62.5007C62.965 130 63.4202 129.871 63.8152 129.627C64.2101 129.383 64.5294 129.034 64.7371 128.618L75.0008 108.091L97.7646 153.618C97.9722 154.034 98.2914 154.383 98.6864 154.627C99.0814 154.871 99.5366 155.001 100.001 155.001C100.465 155.001 100.92 154.871 101.315 154.627C101.71 154.383 102.03 154.034 102.237 153.618L117.501 123.091L125.265 138.618C125.443 138.974 125.703 139.282 126.024 139.517C126.345 139.752 126.718 139.907 127.111 139.969C127.504 140.031 127.906 139.999 128.284 139.874C128.662 139.75 129.004 139.537 129.283 139.253L138.39 130H152.501C153.164 130 153.8 129.737 154.269 129.268C154.738 128.799 155.001 128.163 155.001 127.5C155.001 126.837 154.738 126.201 154.269 125.732C153.8 125.263 153.164 125 152.501 125H137.345C137.013 125 136.685 125.066 136.379 125.194C136.073 125.323 135.795 125.511 135.563 125.747L128.175 133.252L119.737 116.382C119.53 115.967 119.21 115.617 118.815 115.373C118.421 115.129 117.965 115 117.501 115C117.037 115 116.581 115.129 116.186 115.373C115.791 115.617 115.472 115.967 115.265 116.382L100.001 146.91L77.2371 101.382C77.032 100.972 76.7181 100.626 76.3297 100.382C75.9413 100.139 75.4934 100.007 75.0349 100L75.035 100Z" fill="white"/>
<defs>
<radialGradient id="paint0_radial_11_33" cx="0" cy="0" r="1" gradientUnits="userSpaceOnUse" gradientTransform="translate(22 43) rotate(41.413) scale(237.346)">
<stop stop-color="#0B8717"/>
<stop offset="1" stop-color="#00CD2D"/>
</radialGradient>
</defs>
</svg>
